<?xml version="1.0" encoding="UTF-8"?><svg id="a" xmlns="http://www.w3.org/2000/svg" viewBox="0 0 475 600"><defs><style>.b{fill:#f8af07;}</style></defs><path class="b" d="M96.27,14.8c32.92-3.85,67.13,2.24,99.45,2.74,25.48-.09,51.58.43,77.06-.29,31.07-.74,68.96-7.71,100.66-4.72,39.17,4.2,47.97,30.27,54.31,65.67-1.84,7.46-22.94,15.62-31.01,18.14-27.31,8.18-57.17,1.46-87,2.19-42.87,2.02-86.99,5.3-129.87,3.59-25.49-1.15-55.31-.42-80.18-4.05-9.95-1.21-48.51-9.14-52.88-15.34-7.5-11.16,14.69-59.72,28.97-64.12,14.28-4.4,15.53-3.17,20.49-3.8h0Z"/><path class="b" d="M441.79,511.94c-2.38,27.98-20.95,49.17-35.78,70.98-6.82,4.38-45.98,1.41-59.03,2.08-73.94,4-142.92,4.26-217.51.81-18.65-1.17-37.28,1.38-55.93.21-14.98-17.97-36.82-41.5-39.4-65.73-.01-3.73-1.28-10.56,2.45-9.95l44.15,7.92c105.66,2.09,210.03-6.37,314.45-3.65,3.73-.01,7.47,2.46,11.82,2.44,9.32-.03,22.35-7.54,34.79-4.48v-.62Z"/><path class="b" d="M183.66,452.61c-1.9-10.56,1.78-21.14,2.37-30.46,1.12-32.94.99-67.74,1.49-100.68,1.05-51.59-4.74-104.39,3.15-155.38,27.33-2.59,53.46,2.29,80.18,3.43.71,24.86-1.06,49.72.28,74.58.72,26.72.17,45.37.27,72.09-.46,44.75.96,90.11.5,135.48l-88.87.33.62.62Z"/><path class="b" d="M444.17,149.61l8.19,30.42c8.33,67.71,15.45,145.37,4.52,213.15-2.43,13.68-10.46,27.38-7.92,42.29-28.59-1.14-55.25,15.74-84.48,12.12-.03-7.46-.06-14.92-.08-21.75,8.37-88.28,19.26-168.49,6.5-257.31-12.76-88.82-4.99-5.57-3.13-6.82,26.09-3.83,51.57-3.92,76.4-12.09Z"/><path class="b" d="M174.53,170.5c-1.07,45.99,1.59,92.59.52,139.21-1.09,41.64-1.57,79.55.45,120.56.03,7.46.06,14.92.08,22.37-23.62-1.16-45.35,4.52-68.36.25-.67-12.43-6.31-26.08-8.22-38.5-7.65-50.93-6.69-129.24-.67-180.85,2.41-19.27,12.89-42.93,15.93-62.83l60.28-.22h0Z"/><path class="b" d="M351.64,166.11c.67,12.43,6.93,26.08,8.22,38.5,7.68,58.39,1.73,130.5-3.03,189.56-1.18,18.03-1.11,36.05-4.15,54.08l-72.7,4c1.23-3.73,3.09-5.6,3.69-9.96,10.31-68.4,1.96-141.08-.78-209.43-.71-22.37,1.08-44.75-.25-66.5,23.62,1.16,45.35-4.52,68.36-.25h.63Z"/><path class="b" d="M98.08,167.05c-3.64,24.87-14.09,53.5-15.87,78.36-3.56,45.38.39,104.41,4.91,149.14,1.94,19.88,1.39,38.53,8.29,58.39-14.92-.57-62.78-2.25-67.81-18.39-1.95-22.37-11.35-45.33-13.3-67.69-4.55-54.05.81-115.6,3.72-169.05l11.63-46.65c21.79,9.86,45.41,11.64,68.42,15.9h0Z"/><path class="b" d="M30.22,134.37c-7.49-8.05-.14-38.53,9.18-39.19,9.32-.66,37.96,12.91,48.53,14.74s13.05-.05,19.89-.07c57.82,6.62,119.96,3.9,177.13,3.07,30.45-.11,67.75,2.86,96.95-.36,29.2-3.22,58.93-30.05,62.12-6.45,3.83,27.33-10.45,30.49-34.68,34.31-74.53,11.46-152.22,9.89-225.54,13.27-31.07,1.36-82.04-2.18-113.14-7.66-6.84-1.22-39.19-9.8-41.69-12.27l1.25.62Z"/><path class="b" d="M27.08,461.9c6.81-6.86,48.5,6.66,61.55,7.23,82.68,5.91,252.96,5.27,329.95-14.28,7.45-1.89,11.16-8.12,21.1-7.54,16.16,1.18,16.93,39.71,6.39,46.59-1.24,1.25-29.19,5.7-34.16,6.34-8.7.03-19.27.07-27.97.1-107.54-7.06-218.72,10.13-326.91-2.51-8.08-1.21-20.5,1.94-26.11-1.77-6.24-8.06-10.67-26.68-3.23-34.17h-.62Z"/></svg>