<?xml version="1.0" encoding="UTF-8"?><svg id="a" xmlns="http://www.w3.org/2000/svg" viewBox="0 0 450 600"><defs><style>.b{fill:#61181e;}</style></defs><path class="b" d="M293.09,34.17c.6,0,1.19-6.55,4.17-7.74,20.23-10.12,32.73-12.5,53.56-1.19,20.83,11.31,17.26,26.19,23.81,30.35,15.47,8.93,44.64-4.17,41.06,36.9l29.76,17.26c1.19,4.17,1.19,8.33,0,12.5-1.19,11.31-14.88,42.25-15.47,54.16-.6,11.9,2.98,42.85,2.98,62.49,0,76.18,6.55,170.21-2.38,245.2-3.57,27.38-11.31,70.23-35.11,85.7-32.73,22.02-76.77,12.5-113.67,13.09-38.68.6-55.35,12.5-97.6-2.38-51.78-18.45-61.89-70.23-61.3-120.22-26.78,0-85.1,4.17-103.55-19.64C.88,416.85,2.07,316.27,6.23,293.06c12.5-61.3,61.89-83.32,120.81-74.39-1.19-10.12,2.38-23.81-.6-32.73-2.98-8.93-22.61-8.93-21.43-31.54,1.19-22.62,25.59-33.33,26.78-36.9,4.17-18.45-13.09-32.14,8.33-52.97,17.26-17.26,36.3-6.55,44.64-11.9,8.33-5.36,4.76-14.28,9.52-19.64,16.66-20.23,32.73-24.4,58.32-18.45,16.07,4.17,27.38,25,39.28,19.64h1.19ZM353.79,69.28c-7.74-9.52-5.95-20.83-23.21-24.4-25-5.36-28.57,19.04-48.21,17.26-19.64-1.79-28.57-35.71-58.92-22.62-20.83,8.33-13.09,25-24.4,33.92-10.71,8.33-30.95,5.95-44.04,7.14v50.59c-1.19,3.57-27.97,10.71-27.38,23.21.6,12.5,32.14,1.19,42.26,2.38,10.12,1.19,21.43,12.5,31.54,13.09,12.5,0,30.35-13.09,45.23-13.09s23.81,13.09,35.71,13.69c13.69.6,16.07-12.5,26.78-13.69,13.69-1.79,20.23,10.71,35.11,9.52,14.88-1.19,21.43-16.07,27.97-17.26,6.55-1.19,29.76,19.64,46.42,8.33-1.78-13.69-7.14-22.62,4.17-33.33l-26.19-11.9c5.36-47.61-23.21-17.85-43.44-41.66l.59-1.19ZM392.47,187.12c-2.38,70.82,2.98,142.24,0,212.46-1.19,23.81-5.36,87.49-13.69,107.12-8.33,19.64-23.81,21.42-5.95,25,17.85,3.57,9.52-5.36,13.09-9.52,19.05-20.83,22.61-123.79,23.81-155.93,1.19-32.14.6-110.7-4.76-152.95-5.36-42.25-4.17-25-11.31-26.78l-1.19.6ZM186.56,527.54c0-10.71-9.52-14.88-12.5-25.59-25.59-90.46,20.83-214.25-11.9-305.9-15.47,13.69-2.98,36.9-2.98,51.78-1.78,67.25-8.33,138.07-6.55,205.32,0,9.52,3.57,47.02,5.95,55.35,4.17,14.28,12.5,20.23,27.97,19.04h0ZM195.48,200.81l-2.98,149.97c3.57,27.38,4.76,166.64,25.59,179.73,34.52,21.42,39.28-47.61,39.88-67.25,2.98-50.59,1.78-110.7,0-161.88-1.78-51.18-1.19-72.61-4.76-93.44-3.57-20.83-2.38-10.71-8.93-11.31-7.14,5.36-4.76,136.29-4.76,158.9,0,47.02,7.74,94.63-.6,142.24-1.19,7.14-4.17,19.04-12.5,21.42-26.19-102.96-14.28-212.46-17.85-317.8h-13.09v-.6ZM295.47,521.59c1.19,1.79,11.9,8.33,14.28,8.33,26.78,2.38,39.28-52.37,42.26-72.61,11.9-86.89-1.19-174.38-4.17-261.27-10.12,3.57-12.5,15.47-13.69,24.4-5.95,49.4,8.93,121.41,5.95,176.16-2.98,54.75-7.14,82.72-23.81,117.24-7.14-.6-7.14-6.55-8.33-11.9-20.23-61.89-7.74-188.66-14.28-258.29-6.55-69.63-5.95-56.54-17.26-43.44-.6,66.66,4.17,132.72,7.74,199.37,3.57,66.66-3.57,11.31-2.98,17.26,1.19,17.85,7.14,94.03,14.28,104.15v.59ZM124.07,276.99c-40.47-4.17-42.85,23.21-45.23,55.94-2.38,32.73-6.55,75.58,45.23,69.63v-125.57Z"/></svg>