<?xml version="1.0" encoding="UTF-8"?><svg id="a" xmlns="http://www.w3.org/2000/svg" viewBox="0 0 600 600"><defs><style>.b{fill:#61181e;}</style></defs><path class="b" d="M438.61,12.09c5.98,0,21.47,9.15,26.28,21.35,6.57,16.54,1.29,35.9,9.74,42.94,2.35,1.99,3.99,2.7,5.04,2.7,2.93,0,2.35-5.63,2.11-11.26-.35-7.74,1.76-14.31,9.03-16.54.7-.23,1.41-.35,1.99-.35,4.81,0,2.35,8.21,3.75,13.26,1.52,5.63,11.97,13.61,15.49,20.77,3.52,7.16-2.11,14.43-4.58,21.94-2.58,7.51,2.93,10.09,2.93,10.09,8.45-12.32,15.25-16.19,19.12-16.19s4.58,2.93,2.82,5.51c-3.75,5.63-2.35,13.61-.82,17.83,1.52,4.22,5.51,9.15,8.8,17.01,3.28,7.86-1.64,16.66-5.04,24.64-3.4,7.98-7.86,15.13,11.85,16.19,2.58.12,5.16.12,7.86.12h6.34c16.54,0,32.97,1.06,32.97,20.06s-17.25,19.01-31.33,19.01-14.43-.94-17.01-1.17h-2.46c-6.69,0-13.37,2.35-19.59,3.87-4.46,1.17-17.13,1.29-25.58,1.29s-8.1,0-8.1,0c0,0-2.35,12.55-17.25,13.37-14.9.82-17.6,16.89-18.3,33.2-.82,16.31-6.92,56.55-37.19,74.03-30.27,17.48-34.73,33.91-34.61,48.92,0,14.9-8.92,50.45-53.03,100.55-40.36,45.87-40.95,54.56-29.68,54.56s2.23,0,3.4-.23c14.43-1.41,25.81-7.51,60.3-9.97,4.11-.23,8.1-.47,11.85-.47,27.81,0,46.23,8.21,57.14,30.74,7.04,14.55.23,18.19-9.62,18.19s-16.54-2.11-22.76-3.05c-13.73-2.23-29.68-3.75-57.37-3.75s-3.52,0-5.4,0c-23.93.12-54.91,2.23-74.15,2.23s-10.44-.23-13.61-.7c-13.73-2.11-11.26-8.1-10.56-24.99.23-4.34-.23-5.98-.94-5.98-2.35,0-8.21,14.67-14.55,22.17-8.45,10.09-41.53,9.62-76.26,13.49-4.93.59-9.97.82-15.02.82-30.27,0-60.66-9.15-74.62-17.36-16.31-9.62-27.81-30.5-28.04-37.31,0-2.35,1.17-3.17,3.17-3.17,3.75,0,10.09,2.82,13.84,3.29h.82c4.69,0,1.88-5.87-1.52-12.32-3.52-6.8-7.86-10.68-10.79-17.72-2.93-7.04-5.4-17.72,0-17.95h0c2.23,0,5.04,2.58,7.86,5.16,2.7,2.58,5.51,5.16,7.63,5.16s1.41-.35,1.99-1.06c3.87-5.16-2.35-21.35-9.97-29.68-7.63-8.33-8.68-18.65-10.09-26.52-1.41-7.74,3.64-16.89,9.74-21.7,1.41-1.06,2.46-1.53,3.17-1.53,2.46,0,1.88,5.4,2.7,10.09,1.06,6.1,4.81,10.44,9.15,11.15h.35c3.99,0,2.7-13.96,5.98-20.3,3.28-6.57,10.79-17.36,13.96-25.22,3.17-7.74,1.41-10.79-2.58-18.3-2.58-4.81.35-7.39,4.81-7.39s5.4.82,7.98,2.58c7.39,4.81,17.83,14.78,19.36,25.46,1.52,10.68-1.06,16.19-3.4,23.82-1.17,3.64.12,5.63,2.46,5.63s6.22-2.23,9.39-7.04c2.7-4.11,4.69-5.87,6.1-5.87,1.88,0,2.82,2.58,3.64,6.1,1.41,6.45-4.69,19.59-12.08,26.52-7.27,6.8-32.5,16.54-21.24,16.54s.59,0,.94,0c6.92-.23,14.43-2.58,18.42-2.58,3.64,0,4.34,1.99-.94,9.27-11.15,15.25-30.62,11.15-32.62,31.91-.94,9.62-1.17,12.91,0,12.91s4.46-4.34,10.44-7.98c3.28-1.99,5.75-2.93,7.51-2.93,4.22,0,3.87,5.4-1.76,12.91-7.04,9.27-4.22,37.43,15.37,37.43s5.28-.47,8.33-1.53c27.1-9.03,20.18-17.95,24.87-56.78,4.69-38.83,24.05-73.8,35.08-86.7,11.03-12.91,32.03-38.36,37.78-47.87,2.46-4.11,3.4-5.75,2.23-5.75s-6.92,2.93-17.6,7.27c-4.58,1.88-7.98,2.58-10.44,2.58-7.27,0-5.4-7.16,0-13.14,1.88-2.11,1.99-2.93.82-2.93-3.05,0-15.14,6.34-22.64,10.09-5.98,3.05-13.96,4.34-20.41,4.34s-8.33-.59-10.21-1.76c-4.34-2.7,8.45-10.21,13.49-18.07,1.64-2.58,1.64-3.52.47-3.52-2.46,0-10.09,4.11-18.3,5.98-5.16,1.17-10.56,1.76-15.96,1.76s-14.43-.94-21-2.35c-11.38-2.46-9.27-5.98,1.88-12.55,11.03-6.45,14.67-14.08,14.67-14.08-7.04,1.17-13.26,1.76-18.77,1.76-24.17,0-36.25-9.97-46.11-19.48-12.2-11.62,16.19-11.5,32.15-14.43,16.07-2.93-17.13-6.69-33.91-13.26-16.78-6.57-34.02-32.26-33.2-41.18.23-2.35,2.11-3.29,5.16-3.29,8.21,0,24.29,6.8,34.38,8.56,2.23.35,3.87.59,4.93.59,5.16,0-4.81-5.04-18.89-13.14-16.9-9.74-30.97-38.13-32.62-54.56-.82-8.33.59-11.73,3.99-11.73,3.17,0,8.1,3.05,14.31,7.63,12.79,9.39,19.71,9.62,19.71,9.62-11.15-12.32-27.81-51.5-28.39-82.13-.35-17.72,3.28-22.17,6.8-22.17s5.04,2.35,5.98,3.87c2.23,3.4,11.97,16.07,16.66,22.53,4.69,6.45,35.55,42.35,48.69,54.79,13.14,12.44,40.12,32.97,55.85,43.06,15.72,10.09,8.1,14.43,7.27,27.45-.82,13.14,5.4,37.66,13.73,50.92,8.45,13.26,21.94,25.58,38.48,34.38,4.69,2.58,8.92,3.64,12.44,3.64,8.92,0,14.08-6.92,14.67-15.13.7-11.15-3.52-21.24-9.39-21.24s-.35,0-.59,0c-3.87.47-7.98,3.05-10.56,3.05s-2.46-.94-2.35-3.99c.35-7.16-.35-24.76-2.58-24.76s-.47.23-.82.7c-1.52,2.35-4.34,3.99-7.16,3.99s-5.16-1.53-6.34-5.28c-2.11-7.04,0-26.52-3.75-26.52s-.82.23-1.29.59c-2.35,2.11-4.93,3.29-7.16,3.29s-4.93-1.99-5.51-6.92c-.94-8.45,3.75-26.98-.59-26.98s-.35,0-.59,0c-3.17,1.06-7.86,5.4-10.79,5.4s-3.17-2.11-2.11-9.27c2.11-13.84,15.72-20.06,5.51-20.06s-5.87.35-11.03.94c-2.23.23-4.46.35-6.57.35-23.93,0-37.54-16.43-42.12-22.76-5.04-6.92-6.45-16.31-6.8-24.05,0-1.64.35-2.23,1.17-2.23,2.93,0,10.79,9.15,14.43,11.5,4.58,2.93,10.44,4.81,16.43,4.81s.35,0,.47,0c5.98,0,19.71-1.88,26.51-1.88s.35,0,.47,0c6.57,0,14.08,1.88,14.08,1.88-10.21-28.63-26.05-28.51-35.78-30.97-9.74-2.46-2.35-6.92,6.8-8.56,3.52-.59,7.86-1.17,12.67-1.17,7.51,0,15.96,1.41,23.46,5.98,12.32,7.51,19.24,18.77,19.24,18.77,6.45-6.22,13.84-7.86,19.59-7.98,3.75,0,6.92.7,8.68,1.29,4.34,1.53,7.63,4.46,11.97,4.46s.23,0,.35,0c4.46-.12,34.02-20.88,40.59-25.58,6.69-4.69,3.75-10.21,13.61-14.31,2.58-1.06,5.28-1.64,7.98-1.64,7.63,0,15.96,3.87,25.34,9.39,12.79,7.51,22.53,30.86,20.41,41.06-.94,4.81-4.46,6.1-7.98,6.1s-7.86-1.64-7.86-1.64c0,0,1.64,6.69-2.46,10.68-1.52,1.53-4.11,1.99-6.8,1.99-4.58,0-9.39-1.29-9.39-1.29-16.19,18.07-56.2,19.01-56.2,19.01,11.62,9.39,28.63,11.26,40.59,11.26s13.73-.82,13.73-.82c5.04-5.28,8.92-6.69,11.61-6.69s2.82.47,3.75.82c.94.47,1.64.82,2.11.82s.35,0,.47-.35c.94-2.11,4.58-11.5,11.97-11.5s14.55,16.89,4.34,32.15c-7.51,11.26-16.07,15.02-27.81,15.02s-8.68-.47-13.73-1.29c-2.35-.35-4.58-.47-6.8-.47-15.37,0-25.46,7.98-25.46,7.98.35,5.4,3.87,15.72,7.39,21.12,3.52,5.51,18.07,17.48,23.46,21.59,5.4,3.99,38.6,25.22,47.87,38.6,5.87,8.45,7.16,12.2,12.67,12.2s7.63-1.17,15.25-3.4c20.88-6.1,30.39-32.85,32.73-40.83,2.35-8.1,6.57-30.74,6.57-30.74-7.63.23-14.55.35-20.77.35-26.87,0-40.59-2.58-43.17-14.08-3.17-14.08,32.15-33.32,32.15-33.32-.47-3.29-.7-11.38.7-18.3,1.29-6.8.12-9.86-3.99-15.96-4.11-6.1-6.57-12.91-6.1-18.65.47-5.75,6.22-13.26,9.27-18.89,3.05-5.63,2.58-7.39,1.76-16.07-.47-4.69.7-6.69,2.7-6.69s4.22,1.41,6.92,3.75c4.81,4.11,6.57,15.96,9.39,15.96s1.52-.7,2.46-2.58c4.58-9.15-7.27-23.7-8.45-31.09-1.06-7.39-3.05-11.85,5.28-22.29,1.76-2.35,3.4-3.17,4.69-3.17,4.69,0,6.69,11.85,8.45,15.6,1.64,3.4,6.69,8.92,9.62,8.92s1.88-.82,1.99-2.93c.35-7.51,4.34-14.08,7.51-24.99,3.17-10.91-1.88-15.72-5.98-25.34-1.06-2.46,0-3.64,1.99-3.64M480.73,90.7c-3.28,0-6.45-1.17-9.03-3.99-4.69-5.16-12.91-18.77-13.02-31.21,0-12.44-2.58-21.59-4.58-22.41h-.35c-1.64,0-1.41,4.81-1.52,7.86-.12,3.29-3.17,8.56-4.81,12.79-1.64,4.22-2.82,9.15-2.35,13.26.35,4.11,1.06,7.86-1.06,10.56-1.64,1.99-4.22,3.99-7.16,3.99s-2.11-.23-3.17-.82c-4.11-2.23-9.5-3.64-12.44-8.33-2.23-3.52-4.58-7.16-5.63-7.16s-.47.35-.47,1.29c0,3.64,1.29,5.98,3.4,9.5,2.23,3.4,6.45,7.74,7.04,13.49.59,5.75.94,8.1.59,11.97-.47,3.87-3.52,12.2-8.56,12.91-2.35.35-4.46.7-6.22.7s-3.87-.35-5.51-1.53c-1.88-1.41-2.93-3.17-3.75-3.17s-1.06.59-1.64,2.23c-1.64,4.46-7.51,8.92-5.87,15.02,1.64,6.1,3.52,9.74,6.22,13.61,2.7,3.87,3.17,5.63,3.64,7.98.12.59.35.94.7.94.82,0,1.99-2.35,2.23-6.69.23-5.98,3.75-12.32,5.87-13.96.7-.59,1.29-.82,1.88-.82.82,0,1.29.94,1.41,2.58,0,2.58.7,6.57,2.11,11.26,1.52,4.69,3.64,7.16,4.58,10.32.7,2.23.94,5.87,1.88,5.87s.82-.47,1.41-1.76c2.35-4.46,2.7-5.4,1.88-11.38-.82-6.1.47-15.02,1.17-18.54.7-3.52,1.29-8.68,3.75-9.74.35-.12.7-.23,1.17-.23,1.88,0,3.4,1.99,3.4,4.22.12,2.7.59,9.03,1.88,11.5,1.29,2.58,3.17,4.93,3.75,7.16.35,1.29.94,3.17,1.41,3.17s.7-.94,1.06-3.52c.94-6.34.59-6.92,2.58-11.38,1.99-4.46,4.22-7.27,3.99-11.03-.23-3.75-2.11-9.86-3.52-12.2-1.17-1.88-1.17-6.45.82-6.45s.94.23,1.41.7c3.28,2.7,8.56,7.04,10.44,10.79,1.88,3.75,4.81,8.8,5.16,13.96.47,5.16-.94,5.75,1.76,10.91,2.7,5.16,3.64,3.05,5.75,8.92,1.17,3.4,2.11,5.87,2.93,5.87s1.06-1.29,1.52-4.34c1.06-7.39,3.05-9.62.23-13.73-2.7-3.99-3.87-8.1-3.4-12.91.35-3.4,2.23-7.16,4.46-7.16s1.88.59,2.82,2.11c3.28,5.28,4.22,9.15,6.92,10.79,2.7,1.64,5.4,4.11,6.8,9.27,1.41,5.16,2.58,7.16,2.35,12.44-.23,5.28-.59,10.32,1.29,10.44h0c1.88,0,3.99-2.23,4.69-6.22.7-3.75,1.41-6.69,3.28-6.69s.47,0,.7,0c2.35.7,5.16,5.04,5.87,8.33.82,3.17,3.05,9.74,3.05,12.08,0,.82.23,1.29.7,1.29.7,0,1.88-1.29,3.05-3.87,1.88-4.11,5.75-9.86,5.51-15.96-.23-6.1-2.82-12.55-4.11-15.13-1.29-2.46-2.46-5.75-2.82-7.51,0-.59-.23-.82-.35-.82-.35,0-.82,1.17-1.52,3.4-.94,3.05-2.46,6.92-6.22,6.92s-.35,0-.59,0c-4.22-.47-9.97-4.46-14.08-15.49-4.11-11.03,1.06-16.07,2.82-21.12,1.76-5.04,1.76-10.32-.82-15.02-1.99-3.64-5.16-7.74-6.34-7.74s-.59.35-.47,1.29c.35,3.87,1.29,10.68-3.87,13.96-2.35,1.53-5.16,2.35-7.98,2.35M308.74,95.97c1.29,0,2.93-.35,4.81-1.29,6.22-3.05.82-4.69.82-4.69-1.52-.59-4.46-1.29-6.8-1.29s-4.11.59-3.75,2.46c.35,2.7,1.99,4.81,5.04,4.81M122.07,192.53c.59,0,.35-.47-.94-1.88-4.93-5.04-23.23-20.18-26.63-23.11-3.4-2.93-7.51-7.27-10.79-10.44-4.93-4.81-14.78-15.25-19.71-21.47-4.34-5.4-13.49-16.54-14.67-16.54-.12,0-.12.23,0,.82,1.76,4.22,12.79,21.35,17.6,25.81,4.81,4.46,16.19,15.84,21.12,21.35,4.93,5.63,18.19,15.6,22.17,18.77,2.93,2.35,10.09,6.57,11.62,6.57M217.34,141.97s10.21-5.98,19.94-6.92c0,0-.94-5.63-8.68-6.57h-1.29c-6.8,0-9.86,7.39-10.09,13.61M495.63,185.61c-1.99,0-4.34-1.06-4.34-1.06-2.93-1.17-6.1-.7-8.21-2.7-1.41-1.29-2.93-3.52-3.75-3.52s-.7.47-.82,1.76c-.23,2.46-1.29,3.52-3.17,3.52s-2.46-.35-4.11-1.06c-2.82-1.17-5.16-2.93-6.34-2.93s-1.06.47-1.06,1.88c0,3.17-1.76,5.75-5.04,5.75s-1.17,0-1.88-.23c-3.64-.94-9.03-5.51-11.15-5.51s-.82.23-.94.82c-.35,2.58-1.76,5.04-4.22,5.04s-1.29-.12-1.99-.47c-3.4-1.64-6.45-2.93-8.68-2.93s-.35,0-.47,0c-2.35.23-1.41,2.23-4.46,3.4-1.06.47-1.99.59-2.7.59-1.29,0-2.35-.7-3.4-1.99-1.29-1.64-3.05-3.52-4.34-3.52s-.82.23-1.06.82c-.7,1.41-1.17,2.23-2.11,2.23s-1.06-.23-1.88-.94c-1.52-1.17-4.11-2.93-5.16-2.93s-.59.47.12,1.53c2.11,3.52,2.82,4.69,7.39,5.28,1.17.12,1.99.12,2.7.12s.47,0,.59,0h.59c1.41,0,2.35.12,4.58,1.88,2.11,1.64,4.11,2.35,5.75,2.35s1.99-.35,2.46-1.06c.94-1.17,2.46-3.17,4.46-3.17s1.64.35,2.58,1.06c1.99,1.64,3.87,2.46,5.4,2.46s1.99-.35,2.82-1.06c.94-.7,1.76-.94,2.58-.94s2.35.47,4.22.59c1.64.12,3.64.23,5.63.23s3.75-.12,5.16-.47c1.76-.47,3.64-1.06,5.51-1.06s2.35.23,3.52,1.06c2.23,1.41,3.64,2.82,5.51,2.82s1.52-.23,2.46-.59c3.05-1.41,3.4-3.29,5.87-3.29s.7,0,1.06,0c3.4.59,5.51,2.93,9.62,2.93h.23c4.22,0,1.52-3.17,4.69-3.87.59,0,1.17-.12,1.76-.12h3.99c1.52,0,2.93-.23,3.75-1.53,1.41-2.23,4.22-6.45,3.4-6.45s-.47.12-.94.47c-1.41,1.06-3.17,1.29-4.93,1.29s-1.17,0-1.64,0h-1.64c-.59,0-1.41,0-2.11.23-2.93.7-2.11,1.64-4.22,2.7-.47.23-1.06.35-1.64.35M556.64,189.72c-6.69,0-16.89,0-19.01-1.17-1.99-.94-5.63-4.11-7.86-4.11s-1.29.35-1.64,1.29c-1.06,3.75-4.34,13.73-14.67,15.49-10.32,1.64-61.36,1.99-67.23,1.99h-20.18c-9.27,0-26.87-.23-29.68-1.06-4.93-1.41-6.34-3.29-5.98-6.57.23-2.7,2.35-5.87.94-5.87s-.82.12-1.52.47c-3.87,1.88-20.06,10.21-15.49,15.37,4.34,5.04,25.11,5.04,32.15,5.04s.47,0,.7,0h98.55c4.81,0,10.79,0,17.25-1.99,7.04-2.11,9.97-3.05,17.13-3.05s17.72,1.76,26.05,1.76,4.93-.23,6.45-.7c6.1-1.99,10.91-4.34,10.91-9.03s-2.35-8.33-22.17-8.33-2.82,0-4.81,0M248.9,211.54c-7.98,0-18.19-1.41-25.81-7.51-5.63-4.58-8.1-5.98-8.8-5.98s.7,2.35,1.76,3.64c1.88,2.35,9.03,8.56,14.78,11.26,5.75,2.7,10.91,3.75,15.84,3.75s7.39-.59,11.03-1.53c7.63-1.99,7.74-4.69,4.34-4.69s-.82,0-1.29.12c-1.88.35-6.34.94-11.73.94M153.05,276.89c.47,0-1.64-4.22-3.28-7.74-2.82-6.1-3.4-9.74-6.92-22.17-3.52-12.44-2.35-21.94-2.46-26.28,0,0,.7-8.68-.59-11.62-1.06-2.46-10.09-9.5-11.85-9.5-.23,0-.35.12-.23.47.94,2.82,7.63,7.04,7.74,11.38.12,4.34.12,17.13.35,24.99s1.17,18.89,11.15,32.73c4.11,5.75,5.75,7.74,6.1,7.74M303.46,273.02c3.75,0,8.56-2.35,10.09-3.29,0,0,2.7-1.06,2.11-3.52-.23-.82-.82-1.29-1.64-1.29-1.52,0-3.87,1.29-5.98,3.4-3.28,3.17-11.5.47-8.1,3.52.94.82,2.11,1.17,3.52,1.17M323.99,294.84h2.11c9.27-.59,11.85-1.76,11.97-5.75,0-2.35.47-4.58-1.17-4.58s-2.93.94-6.34,3.29c-2.58,1.76-8.56,4.11-11.03,4.11s0,0-.12,0h0c-1.06,0-1.64.7-1.06,1.53.59.7,2.23,1.53,5.75,1.53M344.64,319.83c1.41,0,2.82-.35,4.11-1.06,4.22-2.35,6.92-2.82,7.51-6.45.35-1.88,0-2.82-1.29-2.82s-3.28.82-6.57,2.46c-2.46,1.17-16.66,2.11-12.44,4.69,2.82,1.76,5.87,3.17,8.8,3.17M354.61,351.74c3.4,0,7.16-1.29,8.92-2.58,3.05-2.35,6.22-5.28,3.64-7.98-.47-.47-.82-.59-1.06-.59-1.52,0-2.35,4.58-11.38,5.87-10.91,1.41-7.27,3.4-3.4,4.81.94.35,2.11.59,3.4.59M358.36,389.28c.7,0,1.41,0,2.35-.23,6.69-1.41,9.15,0,11.5-4.69,1.41-3.05,2.11-5.28,0-5.28s-3.4.82-6.92,2.7c-2.35,1.29-10.21,1.64-12.08,2.7-1.64.94.23,4.81,5.16,4.81M73.86,461.32c.59,0,1.06-1.76,1.06-2.82,0-2.23.82-10.09,1.41-16.07.59-5.98,6.34-18.42,7.86-21.47,5.28-10.79,5.75-14.08,4.93-14.08-.35,0-.7.47-1.17,1.06-1.64,2.46-10.32,14.67-12.44,18.07-2.11,3.4-6.22,12.2-4.22,26.05,1.06,7.16,1.99,9.27,2.7,9.27"/></svg>