<?xml version="1.0" encoding="UTF-8"?><svg id="a" xmlns="http://www.w3.org/2000/svg" viewBox="0 0 1170 600"><defs><style>.b{fill:#61181e;}</style></defs><path class="b" d="M316.07,490.53v.16c-13.82-2.63-16.95-17.28-16.95-26.65V135.14c0-59.4,11.19-93.46,11.19-103.16s-1.32-7.73-7.4-7.73h-89.51c-6.25,0-7.4,4.94-7.4,7.73,0,9.71,11.19,43.77,11.19,103.16v338.61c0,59.4-11.19,93.46-11.19,103.16s1.32,7.73,7.4,7.73h132.94c-1.32-2.63-1.97-5.59-1.97-8.88,0-6.42,1.32-11.52,2.63-17.44,1.65-6.58,3.45-14.64,4.77-28.3l3.13-39.82c-13.49,1.15-28.13,2.47-38.83.33Z"/><path class="b" d="M184.11,23.09l.17-.16H10.37c-6.25,0-7.4,4.94-7.4,7.73,0,9.71,11.19,43.77,11.19,103.16v338.78c0,59.4-11.19,93.46-11.19,103.16s1.32,7.73,7.4,7.73h89.51c6.25,0,7.4-4.94,7.4-7.73,0-9.71-11.19-43.77-11.19-103.16v-149.89c0-5.76,2.47-9.71,8.72-9.71h77c6.25,0,8.72-3.95,8.72-9.71v-54.46c0-5.76-2.47-9.71-8.72-9.71h-77c-6.25,0-8.72-3.95-8.72-9.71v-102.18c0-9.71,8.72-21.39,27.31-21.39s27.31,11.68,27.31,21.39v3.95c0,11.68,11.19,18.43,23.53,18.43s23.53-6.75,23.53-18.43V34.77c0-8.72-4.94-11.68-13.66-11.68Z"/><path class="b" d="M542.47,24.24h-116.49c-7.4,0-17.44,4.77-18.59,13.66l-38.5,493.27c-2.47,26.49-7.4,33.56-7.4,44.92s2.47,8.72,9.87,8.72h81.94c7.4,0,11.19-2.47,9.87-9.54-2.47-13.66-6.25-25.67-6.25-39.98s-2.47-44.1,27.31-44.1,27.31,35.21,27.31,44.1c0,14.48-3.78,26.49-6.25,39.98-1.32,7.24,2.47,9.54,9.87,9.54h67.95c-.82-2.47-1.15-5.1-1.15-7.73,0-4.28.99-9.38,2.47-17.28,3.29-16.78,8.72-45.08,8.72-85.89v-25.83l-32.08-410.18c-1.32-8.88-11.19-13.66-18.59-13.66ZM490.48,420.6h-14.81c-8.72,0-11.19-3.95-11.19-14.48l14.15-246.47v-2.63c.33-2.14,1.65-4.94,5.27-4.94s5.76,4.94,6.09,7.57l14.15,246.47c0,10.37-4.94,14.48-13.66,14.48Z"/><polygon class="b" points="542.47 24.24 542.47 24.24 542.8 24.24 542.47 24.24"/><path class="b" d="M930.93,161.96v.08c.06.03.11.06.16.08l-.16-.16Z"/><path class="b" d="M930.93,162.04c-8.81-4.29-15.8-11.99-15.8-21.8s5.76-15.14,10.2-20.07c2.96-3.29,5.1-5.76,6.25-8.23,0-1.81,0-3.46.33-5.1-1.48-2.63-5.43-6.75-7.9-9.54-8.39-9.05-20.07-21.55-20.07-39.82v-9.71c0-8.56,2.63-16.78,7.07-23.86h-101.68c-8.72,0-13.66,3.95-13.66,10.69l-23.69,359.18h-4.94l-23.53-359.18c0-6.75-4.94-10.69-13.66-10.69h-125.38c-6.25,0-7.4,4.94-7.4,7.73,0,9.71,11.19,43.77,11.19,103.16v338.78c0,31.43-3.13,55.94-6.09,73.22-2.63,15.47-5.1,25.34-5.1,29.95s.82,6.09,4.44,7.24c.82.33,1.81.49,2.96.49h89.34c6.25,0,7.4-4.94,7.4-7.73,0-9.71-11.19-43.77-11.19-103.16V157.02c.33-2.14,1.15-5.1,4.11-5.1,4.77,0,4.94,9.21,4.94,9.21l40.64,412.65c0,5.76,6.25,10.69,13.66,10.69h32.25c7.4,0,13.66-4.94,13.66-10.69l41.13-418.57c.49-1.65,1.65-3.29,3.78-3.29,3.45,0,4.44,4.61,4.77,7.4v314.26c0,59.4-11.19,93.46-11.19,103.16s1.32,7.73,7.4,7.73h89.51c6.25,0,7.4-4.94,7.4-7.73,0-9.71-11.19-43.77-11.19-103.16V162.04Z"/><path class="b" d="M1095.47,130.2l.33.49v-14.48c0-10.37,6.09-15.96,15.3-15.96s15.3,5.59,15.3,15.96v32.91c0,8.88,3.13,18.43,16.45,18.43h4.11c13.33,0,16.29-9.54,16.29-18.43l.99-89.01c0-21.72-22.54-39.32-64.5-39.32s-74.37,9.71-85.89,23.03c-2.47-16.95-20.07-32.08-41.96-32.08h-15.3c-.82,0-1.65,0-2.3.16h-.82c-.66,0-1.15,0-1.81.33h-.49c-.82,0-1.65.33-2.47.49-.66,0-1.48.33-2.14.49-.33,0-.82.16-1.15.33-.49,0-.99.33-1.48.49h-.33c-.66.16-1.32.49-1.81.66-3.45,1.32-6.58,3.13-9.38,5.27-.49.33-.99.66-1.48,1.15-.99.66-1.81,1.48-2.63,2.3-.33.33-.82.82-1.15,1.15s-.82.82-1.15,1.15c-.82.82-1.48,1.81-2.14,2.63-.33.33-.49.66-.82.99-2.14,3.13-3.78,6.75-4.77,10.37,0,.49-.16.82-.33,1.32,0,.49-.16.82-.33,1.32,0,.66-.16,1.32-.33,1.97v16.12c0,.33,0,.82.16,1.15,0,.82.33,1.48.49,2.3.33,1.15.66,2.3,1.15,3.46.16.49.33.99.66,1.48.82,1.97,1.81,3.78,3.13,5.59.49.66.82,1.32,1.48,2.14.33.66.82,1.15,1.32,1.65,2.3,3.13,5.1,6.09,7.57,8.72,1.65,1.65,3.13,3.29,4.61,4.94.49.49.99.99,1.32,1.48.82.99,1.48,1.81,2.14,2.8.33.49.66.99.99,1.32.66.82,1.15,1.81,1.65,2.63s.82,1.81,1.15,2.63c0,.16,0,.49.16.66v1.15c0,.33,0,.82.16,1.15v3.46c0,.49,0,.99-.16,1.48v.66c0,.33,0,.66-.16.99,0,.33,0,.49-.16.82-.33,1.15-.66,2.3-1.15,3.29-.16.49-.33.82-.66,1.32-.16.49-.49.82-.66,1.32-.33.49-.66,1.15-.99,1.65-.33.49-.66.82-.99,1.32-.99,1.32-1.97,2.63-2.96,3.78-1.81,2.14-3.62,3.95-5.27,5.76-.33.33-.66.66-.82,1.15-.33.33-.49.66-.82.99-.33.33-.49.82-.82,1.15,0,.33-.33.49-.49.82,0,.33-.33.49-.33.82,0,.16-.16.33-.33.66v.33c0,.16,0,.33-.16.66,0,.49-.16,1.15-.16,1.65,0,1.81.82,3.78,2.47,5.43,0,0,.16.33.33.33,1.81,1.81,4.28,3.46,7.24,4.44.33,0,.66.33,1.15.33s.99.33,1.48.49c.99.33,2.14.49,3.13.49h1.65c14.64,0,41.96-26,57.26-54.13v32.91c0,116.33,71.57,197.28,71.57,328.08v34.55c0,10.37-6.09,15.96-15.3,15.96s-15.3-5.59-15.3-15.96v-56.93c0-8.88-3.13-18.43-18.43-18.43h-4.11c-15.3,0-18.43,9.71-18.43,18.43v123.56c0,17.61,56.76,28.96,92.47,28.96,51.17,0,71.57-23.2,71.57-63.35v-66.64c0-145.94-71.57-226.89-71.57-328.08Z"/></svg>