<?xml version="1.0" encoding="UTF-8"?><svg id="a" xmlns="http://www.w3.org/2000/svg" viewBox="0 0 550 600"><defs><style>.b{fill:#fffdec;}</style></defs><path class="b" d="M195.07,502.42c1.76,1.76,7.05,7.05,9.98,10.57,29.36,31.71,86.31,88.07,133.87,72.22,15.85-5.28,34.64-25.83,47.56-36.4,41.1-33.47,112.15-90.42,140.92-133.28,21.14-31.71,15.27-49.91-2.35-81.03-18.79-33.47-49.32-64-73.39-93.94-33.47-41.69-58.13-73.39-99.23-110.38-12.33-11.16-32.29-31.71-44.04-39.93-4.11-2.94-33.47-19.96-36.4-20.55-27.01-5.87-45.21,2.94-67.52,15.27-5.87,2.94-15.85,12.92-19.96,14.09-29.36,8.22-52.26-5.28-69.87-28.18-12.33-15.85-12.92-32.29-30.53-45.8C60.02,6.86,33.6,6.28,15.4,32.7c-12.92,18.79-4.11,32.88,9.39,47.56,17.03,18.79,41.69,22.9,56.95,49.32,14.09,23.49,11.16,49.32-5.87,70.46-5.87,7.05-15.27,13.5-21.14,21.14-10.57,15.27-15.85,31.71-12.92,50.49,2.94,18.79,14.68,42.86,19.96,52.26,32.29,55.78,89.25,128.59,132.11,177.91l1.18.59ZM58.26,39.16c32.29,5.28,4.7,61.06-16.44,28.18-9.39-14.68,5.28-29.94,16.44-28.18Z"/></svg>