<?xml version="1.0" encoding="UTF-8"?><svg id="a" xmlns="http://www.w3.org/2000/svg" viewBox="0 0 350 600"><defs><style>.b{fill:#fffdec;}</style></defs><path class="b" d="M312.63,29.82c31.09,45.48,22.45,105.35-.58,153.13-12.67,27.06-60.44,84.05-84.62,101.89-24.18,17.85-47.21,17.85-48.36,28.21-1.73,17.27,0,149.1,5.76,154.85,26.48,4.61,101.89,23.6,108.22,51.23,10.94,47.78-42.6,60.44-80.02,66.2-30.51,4.61-108.22,2.88-138.74-5.18-100.17-24.75,22.45-118.59,75.99-112.83v-154.28c-46.63-8.63-67.93-17.27-93.83-58.72-31.66-49.51-40.3-122.04-39.14-180.76,1.15-58.72,1.73-36.27,19.57-43.17s57.57-15.54,73.68-16.69c67.35-5.76,135.86,5.76,202.06,15.54v.58ZM251.61,43.06c-13.82-7.48-157.16-10.36-157.73-2.3l93.26,9.21,64.48-6.91h0ZM299.39,62.05c-80.02,16.12-164.06,11.51-243.51-4.61-5.76,40.3,1.73,73.11,7.48,112.25,5.76,39.15-2.88,14.97-1.73,22.45,6.33,37.99,42.02,67.93,78.29,73.11,36.27,5.18,71.96-8.63,85.77-18.42,10.36-7.48,42.6-54.11,49.51-67.35,20.15-41.45,17.27-73.69,23.6-116.86l.57-.58ZM265.43,538.7v-18.42c-51.23,39.15-127.22,43.75-185.37,16.69h-19c11.51,25.33,67.93,31.09,93.26,31.66,17.85,0,104.2-17.85,111.1-29.93Z"/><path class="b" d="M105.39,223.24c-19-21.3-46.63-117.44-20.72-134.71,19.57-13.24,142.76,8.63,174.43-6.91l12.67,6.91c21.87,78.29-44.9,189.97-135.28,154.28-4.6-1.73-28.21-16.69-31.09-19v-.58Z"/></svg>