<?xml version="1.0" encoding="UTF-8"?><svg id="a" xmlns="http://www.w3.org/2000/svg" viewBox="0 0 450 600"><defs><style>.b{fill:#fffdec;}</style></defs><path class="b" d="M433.16,410.45c-7.39-23.71-17.19-38.9-20.89-51.67-3.7-12.77-6.22-36.5,4.67-52.98,4.84-7.93,2.37-16.44-6.76-17.02-10.35.04-28.58,9.85-52.79,45.85,0,0-14.03-8.47-6.2-30.41,7.83-21.94,23.58-43.31,14.98-65.19-7.99-21.88-34.26-46.75-37.98-63.78-3.1-15.21,4.72-39.59-8.06-40.15-12.78-.56-3.04.01-4.87.63-19.46,5.55-26.08,25.06-26,48.19.06,16.44.12,33.48-7.18,33.51-7.31.03-7.32-3.02-12.82-9.08-21.39-21.84-4.56-79.12-19.35-128.98-11.09-37.09-50.16-66.17-65.99-67.32-5.48.02-8.51,3.08-6.05,10.37,9.24,29.19,21.47,44.36,11.85,76.05-9.62,32.3-21.12,51.21-23.47,73.74.02,6.09-3.01,8.53-6.06,8.54-7.91.03-20.15-17.58-23.84-27.91-4.31-11.55-7.48-46.85-19.66-47.41-3.65.01-7.9,2.46-12.75,9.18-23.63,29.92-18.71,43.9-17.41,65.81,1.91,21.91,31.3,67.45,17.39,93.68-3.02,5.49-4.84,7.32-6.67,7.33-7.31.03-10.48-35.88-22.71-48.61-6.72-7.28-12.83-11.52-17.7-12.11-4.87-.59-8.5,5.51-7.84,19.51.71,26.17,1.94,31.04-7.13,47.51-9.07,16.47-25.43,38.45-27.19,55.5-2.37,17.05,3.18,37.73,13.6,56.56,9.81,18.83,12.89,27.95,8.09,48.06-4.19,20.1-4.7,44.46-4.06,54.19,0,0,1.35,34.08,1.35,34.69,6.22,34.68,56.77,43.01,89.65,44.71,6.09-.02,12.79.56,18.27,1.15,16.44.55,29.83,1.11,34.71,1.7,15.22.55,149.77,6.14,177.76,2.38,27.38-3.75,37.62-33.01,41.23-44.59.6-3.05,15.06-43.28,21.7-58.52,10.26-23.17,24.17-48.79,16.77-73.11h-.61ZM345.38,543.48c-2.42,3.66-6.07,4.28-10.34,3.69-4.26-.59-3.65.01-4.87.02-1.22,0-3.65.01-4.87.02-1.22,0-3.04.01-4.87.02-8.51,1.86-1.78,10.96-12.74,11h0c-10.96.04-15.86-7.85-25-10.26-1.22,0-1.83,0-2.43,0-6.7.02-7.29,4.9-15.79,9.19-2.43,1.23-4.86,1.84-6.69,1.85-4.87.02-8.54-4.84-14.03-9.08-3.05-2.42-6.1-3.63-9.14-3.62-4.87.02-9.74,1.25-14.6,2.49-3.65.62-8.52,1.25-13.39.66-4.87-.59-10.35-1.18-14.62-1.77-4.87-.59-7.92-2.41-10.97-2.39-3.04.01-4.26.02-6.69,2.46-2.43,1.84-4.86,2.45-7.9,2.46-4.26.02-9.14-3.01-14.03-7.86-2.44-2.43-4.28-3.64-6.71-3.63-5.48.02-9.72,5.51-12.14,8.57-1.21,1.83-3.64,3.06-6.69,2.46-4.26.02-9.14-2.4-14.64-7.86-5.5-5.46-7.93-6.06-11.59-6.04h-1.22s-1.22,0-1.83.01c-1.83,0-4.26.02-7.31-.58-12.18-2.39-14.02-6.04-18.93-16.97-1.84-3.65-1.24-4.87-.02-4.87,2.43,0,9.15,6.05,12.82,9.69,1.83,1.82,3.66,3.03,4.88,3.03,2.43,0,3.64-2.45,6.06-6.72.6-1.83,1.82-2.44,3.03-2.45,3.04-.01,7.33,6.06,11,10.92,3.06,4.25,5.5,6.68,8.55,6.66,3.04-.01,4.26-.02,7.3-1.85,7.9-3.07,6.05-9.15,12.14-9.18h1.22c6.09-.03,14.02,4.81,22.56,9.65,1.83,1.21,3.66,1.81,5.48,1.81,6.7-.02,10.32-6.73,12.12-14.65,0-1.83,1.21-2.44,2.43-2.44,5.48-.02,19.54,15.15,28.68,18.16,1.83,0,3.05.6,4.87,1.2,8.52-.03,13.97-6.75,13.94-16.49-.02-4.26,1.2-5.48,3.02-5.49,3.04-.01,9.15,5.44,16.47,9.68,4.27,2.42,7.93,3.62,10.36,3.61,4.87-.02,7.9-3.07,8.48-10.38-.01-3.65,1.2-4.87,2.42-4.88,2.43,0,5.5,6.68,9.17,10.92,5.5,6.07,13.41,4.82,21.34,9.05,0,0,6.1,3.63,10.97,3.61,4.87-.02,3.04-.01,4.26-.62,6.08-2.46,3.63-6.1,11.54-7.35,1.83,0,3.65-.01,5.48-.02,1.83,0,3.04-.01,4.26-.02,1.22,0,3.04-.01,4.26-.02,4.87-.02,9.13-.03,12.77-3.09,1.21-1.22,1.82-1.22,2.43-1.23,2.43,0-5.43,12.8-9.67,18.91h-.61ZM381.02,469.08c-3.63,7.32-6.65,11.59-8.48,10.99-1.83-.6-1.83-1.21-1.84-3.65-.02-6.7-4.97-26.77-6.22-36.5-1.86-9.73-8-23.1-14.09-25.51-.61,0-1.22,0-1.83,0-4.87.02-7.27,8.55-9.67,19.52-2.39,12.18-8.45,18.29-13.33,18.31h0c-4.87.02-3.71-15.81-1.94-31.04,1.77-15.83-1.3-21.91-4.4-37.12-3.1-15.82-9.83-23.1-16.54-28.55-6.72-5.45-9.19-17.01-16.56-33.42-2.45-4.86-4.89-6.68-7.33-6.67-6.09.02-11.53,10.39-12.71,20.74-1.77,14.01.1,26.78,6.84,38.93,6.74,12.15,1.29,18.87-2.89,40.8-1.79,9.14-3,12.79-4.21,12.8s-4.29-7.29-6.76-17.63c-4.94-18.24-7.35-11.54-14.1-27.34-6.75-15.8-2.5-17.64-3.17-32.86-.67-15.22-7.42-31.02-11.72-41.96-4.31-11.55-17.75-25.5-25.69-33.39-1.22-1.21-2.44-1.82-3.66-2.42-4.87.02-6.04,13.41-2.97,18.88,3.68,7.29,7.4,25.54,7.44,36.5.04,10.96-6.01,19.5-12.05,32.31-6.04,12.81-5.42,14.63-8.4,33.51-1.19,7.92-2.4,10.36-3.61,10.36s-2.45-5.47-3.08-9.73c-1.24-6.69-6.14-13.98-9.21-21.88-3.07-7.9-3.14-26.77-3.17-34.69-.02-6.7-3.7-12.77-8.57-13.36-4.87-.59-1.83,0-3.04.01-6.69,2.46-9.06,18.3-11.46,28.65-2.4,10.36-7.17,37.16-5.88,55.42,1.29,18.26.08,20.7-6.57,34.11-1.81,3.66-3.03,4.88-4.24,4.89-2.43,0-2.48-10.95-4.33-17.64-1.86-9.73-7.37-17.02-10.47-31.62-3.1-14.6-4.36-26.16-3.78-34.08-.02-4.87-1.25-7.91-3.07-7.9-1.83,0-3.04.62-4.86,2.45-6.07,4.89-16.35,23.19-17.5,40.85-1.17,12.79-4.8,19.5-6.62,19.5-1.83,0-1.22-1.21-1.84-3.04-.63-6.69-1.87-12.17-8.61-24.32-6.74-12.15-11.04-23.09-14.15-41.34-3.72-18.25,12.67-31.09,17.49-43.89,1.81-4.88,3.02-6.71,4.84-6.71,2.43,0,4.89,5.46,9.78,9.7,4.28,3.64,8.54,4.84,14.02,5.43,5.48.59,10.35-.04,16.43-1.28,13.39-1.88,23.04-25.65,24.82-37.83,1.78-11.57,1.15-18.27-.13-35.92-.67-17.65-11.07-30.4-16.59-41.33-5.52-10.33-7.98-17.62-7.41-28.58,0-2.43.6-3.65,1.81-3.66,2.43,0,8.56,11.53,13.48,22.47,6.75,14.58,21.38,19.4,31.75,26.67,2.44,1.82,5.49,3.02,7.92,3.01,7.91-.03,15.2-5.54,19.44-11.03,6.06-7.94,4.8-18.89,4.15-31.06-.05-12.17,2.94-26.8,8.38-38.99,4.82-12.19,13.9-28.05,14.47-37.8.58-9.13,1.13-23.75,5.39-23.15,4.26.59.61,0,1.22,0,5.49,2.41,10.46,30.4,8.77,67.54-1.69,37.14,17.94,78.46,29.57,94.85,6.12,8.5,14.66,12.73,23.18,13.31,7.31-.03,14.6-1.88,21.28-6.17,13.97-9.18,12.68-29.27,12.02-40.83-.01-3.04-.01-3.65,1.21-3.66,3.04-.01,11,12.74,15.92,24.29,6.14,14.59,5.59,30.42.17,45.05-5.42,14.63-19.98,29.29-10.72,62.74,9.26,33.45,23.91,46.18,34.88,47.96,0,0,1.22,0,1.83,0,9.74-.04,14.57-11.01,17.58-19.54,2.41-6.1,3.62-9.75,4.23-9.76.61,0,.61.61.62,2.43.02,5.48,3.1,15.21,6.17,22.5,3.07,7.9,8.62,27.36,8.69,45.62.07,18.26-11.44,34.74-16.87,46.94l.6-1.22Z"/></svg>